<?xml version="1.0" encoding="UTF-8"?>
<svg width="32px" height="12px" viewBox="0 0 33 19" version="1.1" xmlns="http://www.w3.org/2000/svg" xmlns:xlink="http://www.w3.org/1999/xlink">
    <!-- Generator: Sketch 49.1 (51147) - http://www.bohemiancoding.com/sketch -->
    <title>badax</title>
    <desc>Created with Sketch.</desc>
    <defs>
        <path d="M26.3349592,0 L26.3349592,0 C29.3771969,-5.58849987e-16 31.8434177,2.46622088 31.8434177,5.50845852 C31.8434177,6.69063911 31.8434177,7.87281971 31.8434177,9.05500031 C31.8434177,11.7151032 31.8434177,13.7273254 31.8434177,15.0916672 C30.1833344,17.1038895 28.3471815,18.1100006 26.3349592,18.1100006 C24.3227369,18.1100006 22.4865841,17.1038895 20.8265007,15.0916672 L20.8265007,5.50845852 C20.8265007,2.46622088 23.2927216,5.58849987e-16 26.3349592,0 Z" id="path-1"></path>
    </defs>
    <g id="Page-1" stroke="none" stroke-width="1" fill="none" fill-rule="evenodd">
        <g id="badax" transform="translate(1.000000, 0.000000)">
            <polygon id="Path-6" stroke="#979797" fill="#A88C8C" points="0.0471614599 3.13387901 21.0210417 3.13387901 21.0210417 6.15692859 0.0471614599 6.15692859"></polygon>
            <g id="Rectangle">
                <use fill="#D8D8D8" fill-rule="evenodd" xlink:href="#path-1"></use>
                <path stroke="#979797" stroke-width="1" d="M21.3265007,14.9100518 C22.865763,16.7224642 24.5292234,17.6100006 26.3349592,17.6100006 C28.1406951,17.6100006 29.8041554,16.7224642 31.3434177,14.9100519 C31.3434177,12.7186956 31.3434177,12.6251211 31.3434177,9.05500031 C31.3434177,7.28172941 31.3434177,7.28172941 31.3434177,5.50845852 C31.3434177,2.74236326 29.1010545,0.5 26.3349592,0.5 C23.568864,0.5 21.3265007,2.74236326 21.3265007,5.50845852 L21.3265007,14.9100537 Z"></path>
            </g>
        </g>
    </g>
</svg>