<?xml version="1.0" encoding="UTF-8"?>
<svg width="60px" height="28px" viewBox="0 0 60 28" version="1.1" xmlns="http://www.w3.org/2000/svg" xmlns:xlink="http://www.w3.org/1999/xlink">
    <!-- Generator: Sketch 49.1 (51147) - http://www.bohemiancoding.com/sketch -->
    <title>Group 3</title>
    <desc>Created with Sketch.</desc>
    <defs></defs>
    <g id="Page-1" stroke="none" stroke-width="1" fill="none" fill-rule="evenodd" stroke-linecap="square">
        <g id="Group-3" transform="translate(3.000000, 3.000000)" fill="#000000" stroke="#000000" stroke-width="1.26371215">
            <path d="M1,23.8947368 L1,0.105263158" id="Line-2"></path>
            <path id="Line-2-decoration-1" d="M1,0.105263158 L-2,10.9052632 L4,10.9052632 L1,0.105263158 Z"></path>
            <path d="M11,23.8947368 L11,0.105263158" id="Line-2"></path>
            <path id="Line-2-decoration-1" d="M11,0.105263158 L8,10.9052632 L14,10.9052632 L11,0.105263158 Z"></path>
            <path d="M21,23.8947368 L21,0.105263158" id="Line-2"></path>
            <path id="Line-2-decoration-1" d="M21,0.105263158 L18,10.9052632 L24,10.9052632 L21,0.105263158 Z"></path>
            <path d="M33,23.8947368 L33,0.105263158" id="Line-2"></path>
            <path id="Line-2-decoration-1" d="M33,0.105263158 L30,10.9052632 L36,10.9052632 L33,0.105263158 Z"></path>
            <path d="M43,23.8947368 L43,0.105263158" id="Line-2"></path>
            <path id="Line-2-decoration-1" d="M43,0.105263158 L40,10.9052632 L46,10.9052632 L43,0.105263158 Z"></path>
            <path d="M53,23.8947368 L53,0.105263158" id="Line-2"></path>
            <path id="Line-2-decoration-1" d="M53,0.105263158 L50,10.9052632 L56,10.9052632 L53,0.105263158 Z"></path>
        </g>
    </g>
</svg>