<?xml version="1.0" encoding="UTF-8"?>
<svg width="32px" height="12px" viewBox="0 0 29 19" version="1.1" xmlns="http://www.w3.org/2000/svg" xmlns:xlink="http://www.w3.org/1999/xlink">
    <!-- Generator: Sketch 49.1 (51147) - http://www.bohemiancoding.com/sketch -->
    <title>Group 4</title>
    <desc>Created with Sketch.</desc>
    <defs>
        <rect id="path-1" x="5.79545455" y="4.33333333" width="18.75" height="1.66666667"></rect>
    </defs>
    <g id="Page-1" stroke="none" stroke-width="1" fill="none" fill-rule="evenodd">
        <g id="Group-4" transform="translate(-1.000000, -2.000000)">
            <g id="Sword" transform="translate(16.449397, 11.280814) rotate(-26.000000) translate(-16.449397, -11.280814) translate(0.949397, 6.780814)">
                <g id="Group-3" transform="translate(5.795455, 3.333333)" fill="#D8D8D8" stroke="#979797">
                    <polygon id="Path-2" points="0.037740962 2.83719069 19.609297 2.83719069 24.1542157 1.44606761 19.609297 0.0549445313 0.037740962 0.0549445313"></polygon>
                </g>
                <polyline id="Path-3" stroke="#979797" fill="#5E4D4D" points="6.13636364 5.9684334 6.13636364 9 4.43181818 9 4.43181818 0 6.13636364 0 6.13636364 3.00899111"></polyline>
                <polyline id="Path-4" stroke="#979797" fill="#520E0E" points="4.43181818 3.33333333 0 3.33333333 0 6 4.43181818 6"></polyline>
                <path d="M5.79545455,4.66666667 L29.3181818,4.66666667" id="Path-5" stroke="#979797"></path>
                <g id="Rectangle-2">
                    <use fill="#9B9B9B" fill-rule="evenodd" xlink:href="#path-1"></use>
                    <rect stroke="#979797" stroke-width="1" x="6.29545455" y="4.83333333" width="17.75" height="1"></rect>
                </g>
            </g>
            <g id="Group-2" transform="translate(5.000000, 5.000000)" stroke="#000000">
                <path d="M9,11.8815789 L0,6.15940188 C2.9809728,3.18471291 5.9809728,1.69736842 9,1.69736842 C12.0190272,1.69736842 15.0190272,3.18471291 18,6.15940188 L9,11.8815789 Z" id="Path" stroke-width="2.25600004"></path>
                <g id="Group" transform="translate(9.000000, 0.000000)" fill="#000000" stroke-linecap="square" stroke-width="1.25581395">
                    <path d="M0.28125,11.8299199 L0.28125,0.0516590389" id="Line"></path>
                    <path id="Line-decoration-1" d="M0.28125,0.0516590389 L-2.71875,10.851659 L3.28125,10.851659 L0.28125,0.0516590389 Z"></path>
                </g>
            </g>
        </g>
    </g>
</svg>