<?xml version="1.0" encoding="UTF-8"?>
<svg width="29px" height="17px" viewBox="0 0 29 17" version="1.1" xmlns="http://www.w3.org/2000/svg" xmlns:xlink="http://www.w3.org/1999/xlink">
    <!-- Generator: Sketch 49.1 (51147) - http://www.bohemiancoding.com/sketch -->
    <title>Group 5</title>
    <desc>Created with Sketch.</desc>
    <defs>
        <rect id="path-1" x="5.96642655" y="3.07302659" width="19.3031447" height="1.18193331"></rect>
    </defs>
    <g id="Page-1" stroke="none" stroke-width="1" fill="none" fill-rule="evenodd">
        <g id="Group-5" transform="translate(-2.000000, 0.000000)">
            <g id="Group-4">
                <g id="Sword" transform="translate(16.875754, 8.005818) rotate(-26.000000) translate(-16.875754, -8.005818) translate(1.375754, 4.733090)">
                    <g id="Group-3" transform="translate(5.966427, 2.363867)" fill="#D8D8D8" stroke="#979797">
                        <polygon id="Path-2" points="0.0388543601 2.0120221 20.1877919 2.0120221 24.8667905 1.02549328 20.1877919 0.0389644629 0.0388543601 0.0389644629"></polygon>
                    </g>
                    <polyline id="Path-3" stroke="#979797" fill="#5E4D4D" points="6.31739282 4.23257413 6.31739282 6.38243985 4.56256148 6.38243985 4.56256148 0 6.31739282 0 6.31739282 2.13385608"></polyline>
                    <polyline id="Path-4" stroke="#979797" fill="#520E0E" points="4.56256148 2.36386661 0 2.36386661 0 4.2549599 4.56256148 4.2549599"></polyline>
                    <g id="Rectangle-2">
                        <use fill="#9B9B9B" fill-rule="evenodd" xlink:href="#path-1"></use>
                        <rect stroke="#979797" stroke-width="1" x="6.46642655" y="3.57302659" width="18.3031447" height="1"></rect>
                    </g>
                </g>
                <path d="M16.9368421,11.8972029 L7.73684211,7.50110233 C10.7840587,5.21577775 13.8507254,4.07311546 16.9368421,4.07311546 C20.0229588,4.07311546 23.0896255,5.21577775 26.1368421,7.50110233 L16.9368421,11.8972029 Z" id="Path" stroke="#000000" stroke-width="2.25600004"></path>
            </g>
            <path d="M16.5,11.5588674 L16.5,2.25931446" id="Line-4" stroke="#979797" stroke-width="3" stroke-linecap="square"></path>
        </g>
    </g>
</svg>