<?xml version="1.0" encoding="UTF-8"?>
<svg width="82px" height="48px" viewBox="0 0 82 48" version="1.1" xmlns="http://www.w3.org/2000/svg" xmlns:xlink="http://www.w3.org/1999/xlink">
    <!-- Generator: Sketch 49.1 (51147) - http://www.bohemiancoding.com/sketch -->
    <title>Group 4</title>
    <desc>Created with Sketch.</desc>
    <defs>
        <rect id="path-1" x="17" y="13" width="55" height="5"></rect>
    </defs>
    <g id="Page-1" stroke="none" stroke-width="1" fill="none" fill-rule="evenodd">
        <g id="Group-4" transform="translate(-4.000000, -10.000000)">
            <g id="Sword" transform="translate(46.000000, 31.500000) rotate(-26.000000) translate(-46.000000, -31.500000) translate(2.000000, 18.000000)">
                <g id="Group-3" transform="translate(17.000000, 10.000000)" fill="#D8D8D8" stroke="#979797">
                    <polygon id="Path-2" points="0.110706822 8.51157206 57.5206046 8.51157206 70.8523661 4.33820283 57.5206046 0.164833594 0.110706822 0.164833594"></polygon>
                </g>
                <polyline id="Path-3" stroke="#979797" fill="#5E4D4D" points="18 17.9053002 18 27 13 27 13 0 18 0 18 9.02697332"></polyline>
                <polyline id="Path-4" stroke="#979797" fill="#520E0E" points="13 10 0 10 0 18 13 18"></polyline>
                <path d="M17,14 L86,14" id="Path-5" stroke="#979797"></path>
                <g id="Rectangle-2">
                    <use fill="#9B9B9B" fill-rule="evenodd" xlink:href="#path-1"></use>
                    <rect stroke="#979797" stroke-width="1" x="17.5" y="13.5" width="54" height="4"></rect>
                </g>
            </g>
            <g id="Group-2" transform="translate(15.000000, 13.000000)" stroke="#000000">
                <path d="M27,35.6447368 L0,18.4782056 C8.94291839,9.55413872 17.9429184,5.09210526 27,5.09210526 C36.0570816,5.09210526 45.0570816,9.55413872 54,18.4782056 L27,35.6447368 Z" id="Path" stroke-width="2.25600004"></path>
                <g id="Group" transform="translate(27.000000, 0.000000)" fill="#000000" stroke-linecap="square" stroke-width="1.25581395">
                    <path d="M0.84375,35.4897597 L0.84375,0.154977117" id="Line"></path>
                    <path id="Line-decoration-1" d="M0.84375,0.154977117 L-2.15625,10.9549771 L3.84375,10.9549771 L0.84375,0.154977117 Z"></path>
                </g>
            </g>
        </g>
    </g>
</svg>